<svg width="49" height="49" viewBox="0 0 49 49" fill="none" xmlns="http://www.w3.org/2000/svg">
<path fill-rule="evenodd" clip-rule="evenodd" d="M7.42185 0H40.9729C43.1128 0 44.5212 1.55579 45.4305 3.49158L48.3946 9.80562H0L2.96417 3.49158C3.87346 1.55579 5.28193 0 7.42185 0ZM45.5834 20.56V42.8631C45.5834 43.0748 45.4114 43.2469 45.1997 43.2469H41.3754C41.1637 43.2469 40.9916 43.0748 40.9916 42.8631V27.3599C40.9916 25.6699 39.6078 24.288 37.9197 24.288H31.6323C29.9422 24.288 28.5603 25.6717 28.5603 27.3599V42.8631C28.5603 43.0748 28.3883 43.2469 28.1766 43.2469H3.19477C2.98304 43.2469 2.81101 43.0748 2.81101 42.8631V20.56C2.81101 20.5033 2.83181 20.456 2.87528 20.4182C2.91687 20.3804 2.96792 20.3634 3.02274 20.369C3.1683 20.3842 3.31765 20.3917 3.46699 20.3917C4.72791 20.3917 5.85647 19.836 6.63533 18.9607C6.71095 18.8756 6.80736 18.8321 6.92078 18.8321C7.03421 18.8321 7.13251 18.8756 7.20623 18.9607C7.9851 19.836 9.11366 20.3917 10.3746 20.3917C11.6355 20.3917 12.7641 19.836 13.5429 18.9607C13.6185 18.8756 13.715 18.8321 13.8284 18.8321C13.9418 18.8321 14.0382 18.8756 14.1138 18.9607C14.8927 19.836 16.0231 20.3917 17.2822 20.3917C18.5431 20.3917 19.6717 19.836 20.4505 18.9607C20.5261 18.8756 20.6226 18.8321 20.736 18.8321C20.8494 18.8321 20.9477 18.8756 21.0214 18.9607C21.8003 19.836 22.9289 20.3917 24.1898 20.3917C25.4507 20.3917 26.5793 19.836 27.3581 18.9607C27.4337 18.8756 27.5302 18.8321 27.6436 18.8321C27.757 18.8321 27.8553 18.8756 27.929 18.9607C28.7079 19.836 29.8365 20.3917 31.0974 20.3917C32.3583 20.3917 33.4869 19.836 34.2657 18.9607C34.3413 18.8756 34.4377 18.8321 34.5512 18.8321C34.6646 18.8321 34.7629 18.8756 34.8366 18.9607C35.6155 19.836 36.744 20.3917 38.005 20.3917C39.2659 20.3917 40.3945 19.836 41.1733 18.9607C41.2489 18.8756 41.3453 18.8321 41.4588 18.8321C41.5722 18.8321 41.6705 18.8756 41.7442 18.9607C42.5231 19.836 43.6535 20.3917 44.9126 20.3917C45.0619 20.3917 45.2113 20.3842 45.3568 20.369C45.4135 20.3634 45.4627 20.3804 45.5062 20.4163C45.5477 20.4541 45.5685 20.5033 45.5685 20.5581L45.5834 20.56ZM8.849 38.2942H21.5865C21.802 38.2942 21.9759 38.1184 21.9759 37.9048V26.7116C21.9759 26.4961 21.8001 26.3221 21.5865 26.3221H8.849C8.63539 26.3221 8.45958 26.4979 8.45958 26.7116V37.9048C8.45958 38.1184 8.63539 38.2942 8.849 38.2942ZM0.684348 44.9731H47.7123C47.8182 44.9731 47.9032 45.0601 47.9032 45.1641V48.2019C47.9032 48.3078 47.8163 48.3929 47.7123 48.3929H0.684348C0.578485 48.3929 0.493417 48.3059 0.493417 48.2019V45.1641C0.493417 45.0582 0.580377 44.9731 0.684348 44.9731ZM38.8179 31.9956C39.3717 31.9956 39.8235 32.4455 39.8235 32.9994C39.8235 33.5552 39.3736 34.0051 38.8179 34.0051C38.264 34.0051 37.8141 33.5552 37.8141 32.9994C37.8141 32.4455 38.264 31.9956 38.8179 31.9956ZM0.0150507 11.5053H48.3831V15.1444C48.3831 17.0688 46.8292 18.6417 44.9274 18.6417C43.7629 18.6417 42.7269 18.0499 42.1012 17.1501C41.9538 16.9384 41.7307 16.8212 41.4736 16.8212C41.2146 16.8212 40.9934 16.9384 40.846 17.1501C40.2202 18.05 39.1843 18.6417 38.0198 18.6417C36.8554 18.6417 35.8194 18.0499 35.1937 17.1501C35.0462 16.9384 34.8232 16.8212 34.5661 16.8212C34.3071 16.8212 34.0859 16.9384 33.9384 17.1501C33.3127 18.05 32.2767 18.6417 31.1123 18.6417C29.9478 18.6417 28.9118 18.0499 28.2861 17.1501C28.1387 16.9384 27.9156 16.8212 27.6585 16.8212C27.3995 16.8212 27.1783 16.9384 27.0309 17.1501C26.4051 18.05 25.3692 18.6417 24.2047 18.6417C23.0402 18.6417 22.0043 18.0499 21.3786 17.1501C21.2311 16.9384 21.008 16.8212 20.7509 16.8212C20.4919 16.8212 20.2708 16.9384 20.1233 17.1501C19.4976 18.05 18.4616 18.6417 17.2972 18.6417C16.1327 18.6417 15.0986 18.0499 14.471 17.1501C14.3236 16.9384 14.1005 16.8212 13.8434 16.8212C13.5844 16.8212 13.3632 16.9384 13.2157 17.1501C12.59 18.05 11.5541 18.6417 10.3896 18.6417C9.22513 18.6417 8.18915 18.0499 7.56345 17.1501C7.416 16.9384 7.19293 16.8212 6.93582 16.8212C6.67683 16.8212 6.45565 16.9384 6.30819 17.1501C5.68056 18.05 4.64651 18.6417 3.48204 18.6417C1.58217 18.6417 0.0263751 17.0669 0.0263751 15.1444V11.5053H0.0150507Z" fill="black"/>
</svg>
