<svg width="56" height="51" viewBox="0 0 56 51" fill="none" xmlns="http://www.w3.org/2000/svg">
<path d="M31.916 10.9538C31.916 17.0036 27.0117 21.9075 20.9622 21.9075C14.9154 21.9075 10.0107 17.0032 10.0107 10.9538C10.0107 4.90395 14.9151 0 20.9622 0C27.012 0 31.916 4.90433 31.916 10.9538Z" fill="black"/>
<path d="M37.365 28.1602C34.4939 25.0459 30.3748 23.1006 25.8075 23.1006H15.741C7.0395 23.1006 0 30.1406 0 38.8303V48.3928H8.54625V37.0663C8.54625 36.3574 9.12633 35.7802 9.83235 35.7802C10.5413 35.7802 11.1184 36.3603 11.1184 37.0663V48.3928H29.1769L31.8928 28.1601L37.365 28.1602Z" fill="black"/>
<path d="M55.618 48.4304L53.2509 30.7319H49.3778V34.0132C49.3778 34.7222 48.7977 35.2993 48.0917 35.2993C47.3827 35.2993 46.8056 34.7192 46.8056 34.0132V30.7319H40.6006V34.0132C40.6006 34.7222 40.0205 35.2993 39.3145 35.2993C38.6055 35.2993 38.0284 34.7192 38.0284 34.0132V30.7319H34.1553L31.7881 48.4304C31.6211 49.6931 32.5996 50.7976 33.8594 50.7976H53.5529C54.8068 50.8005 55.7851 49.6931 55.618 48.4304Z" fill="black"/>
<path d="M40.5967 28.6489C40.5967 26.9497 41.9854 25.561 43.6992 25.561C45.4101 25.561 46.8017 26.9497 46.8017 28.6489V30.7348H49.3769V28.6489C49.3769 25.52 46.8281 22.9858 43.7021 22.9858C40.5732 22.9858 38.0273 25.5229 38.0273 28.6489V30.7348H40.6025L40.5967 28.6489Z" fill="black"/>
</svg>
